<svg width="274" height="79" viewBox="0 0 274 79" fill="none" xmlns="http://www.w3.org/2000/svg">
<path d="M103.963 12.2081H112.266L131.315 61.0499H124.198L117.29 44.025H99.2186L92.9389 61.0499H85.6824L103.963 12.2081ZM116.034 38.5827L108.987 21.4183C108.754 20.7671 108.65 20.0461 108.673 19.2553C108.696 18.4645 108.708 17.7435 108.708 17.0923H107.522C107.522 17.7435 107.533 18.4645 107.557 19.2553C107.58 20.0461 107.475 20.7671 107.243 21.4183L100.335 38.5827H116.034Z" fill="white"/>
<path d="M148.758 62.2361C146.153 62.2361 143.781 61.7709 141.641 60.8406C139.501 59.9103 137.676 58.6195 136.164 56.9681C134.652 55.3168 133.489 53.3748 132.675 51.142C131.861 48.9092 131.454 46.4904 131.454 43.8855C131.454 41.2806 131.873 38.9083 132.71 36.629C133.547 34.3497 134.722 32.3612 136.234 30.6634C137.745 28.9655 139.56 27.6282 141.676 26.6514C143.793 25.6745 146.13 25.1861 148.688 25.1861C151.061 25.1861 153.154 25.5931 154.968 26.4071C156.782 27.2212 158.34 28.3027 159.643 29.6516C160.387 30.4424 160.922 31.4425 161.248 32.6519C161.573 33.8613 161.922 34.9777 162.294 36.0011L163.411 35.5824C163.085 34.6056 162.724 33.5241 162.329 32.3379C161.934 31.1518 161.736 30.0238 161.736 28.9539V10.5336H167.806V61.1197H161.736V58.6078C161.736 57.538 161.934 56.4216 162.329 55.2587C162.724 54.0958 163.085 53.0259 163.411 52.0491L162.294 51.6304C161.922 52.6538 161.573 53.7702 161.248 54.9796C160.922 56.189 160.387 57.1658 159.643 57.9101C158.34 59.259 156.794 60.3173 155.003 61.0848C153.212 61.8523 151.13 62.2361 148.758 62.2361ZM149.107 30.9773C147.153 30.9773 145.444 31.3146 143.979 31.9891C142.513 32.6635 141.304 33.5939 140.35 34.78C139.397 35.9662 138.687 37.35 138.222 38.9316C137.757 40.5131 137.524 42.1877 137.524 43.9553C137.524 45.7229 137.757 47.3626 138.222 48.8744C138.687 50.3861 139.397 51.7002 140.35 52.8166C141.304 53.933 142.513 54.8168 143.979 55.468C145.444 56.1192 147.153 56.4448 149.107 56.4448C151.061 56.4448 152.793 56.1192 154.305 55.468C155.817 54.8168 157.084 53.933 158.108 52.8166C159.131 51.7002 159.91 50.3861 160.445 48.8744C160.98 47.3626 161.248 45.7229 161.248 43.9553C161.248 42.1877 160.98 40.5131 160.445 38.9316C159.91 37.35 159.131 35.9662 158.108 34.78C157.084 33.5939 155.817 32.6635 154.305 31.9891C152.793 31.3146 151.061 30.9773 149.107 30.9773Z" fill="white"/>
<path d="M191.25 62.236C188.506 62.236 185.994 61.7592 183.715 60.8056C181.436 59.8521 179.47 58.538 177.819 56.8634C176.168 55.1888 174.888 53.2119 173.981 50.9326C173.074 48.6533 172.621 46.188 172.621 43.5366C172.621 40.8852 173.074 38.4315 173.981 36.1754C174.888 33.9194 176.168 31.9774 177.819 30.3493C179.47 28.7213 181.436 27.4537 183.715 26.5466C185.994 25.6396 188.506 25.186 191.25 25.186C193.995 25.186 196.518 25.6512 198.821 26.5815C201.123 27.5118 203.089 28.791 204.717 30.4191C206.345 32.0471 207.612 33.9776 208.519 36.2103C209.427 38.4431 209.88 40.8852 209.88 43.5366C209.88 46.188 209.427 48.6533 208.519 50.9326C207.612 53.2119 206.345 55.1888 204.717 56.8634C203.089 58.538 201.123 59.8521 198.821 60.8056C196.518 61.7592 193.995 62.236 191.25 62.236ZM178.9 43.5366C178.9 45.2577 179.156 46.909 179.668 48.4905C180.18 50.0721 180.947 51.4443 181.97 52.6072C182.994 53.7701 184.273 54.7004 185.808 55.3982C187.343 56.0959 189.157 56.4448 191.25 56.4448C193.344 56.4448 195.158 56.0959 196.693 55.3982C198.228 54.7004 199.507 53.7701 200.53 52.6072C201.554 51.4443 202.321 50.0721 202.833 48.4905C203.345 46.909 203.6 45.2577 203.6 43.5366C203.6 41.8155 203.345 40.1177 202.833 38.5826C202.321 37.0476 201.554 35.7219 200.53 34.6055C199.507 33.4891 198.228 32.6053 196.693 31.9541C195.158 31.3029 193.344 30.9773 191.25 30.9773C189.157 30.9773 187.343 31.3029 185.808 31.9541C184.273 32.6053 182.994 33.4891 181.97 34.6055C180.947 35.7219 180.18 37.0476 179.668 38.5826C179.156 40.1177 178.9 41.769 178.9 43.5366Z" fill="white"/>
<path d="M214.136 78.6329V26.3024L220.207 26.2326V28.7445C220.207 29.8144 220.009 30.9308 219.614 32.0937C219.218 33.2566 218.858 34.3497 218.532 35.373L219.648 35.7219C220.021 34.7451 220.369 33.6519 220.695 32.4425C221.021 31.2331 221.556 30.233 222.3 29.4423C223.649 28.0933 225.219 27.0467 227.01 26.3024C228.8 25.5582 230.882 25.186 233.254 25.186C235.906 25.186 238.301 25.6512 240.441 26.5815C242.581 27.5118 244.407 28.8027 245.918 30.454C247.43 32.1053 248.593 34.0473 249.407 36.2801C250.221 38.5129 250.628 40.9317 250.628 43.5366C250.628 46.1415 250.209 48.5138 249.372 50.7931C248.535 53.0724 247.349 55.0609 245.814 56.7587C244.279 58.4566 242.453 59.7939 240.336 60.7707C238.22 61.7476 235.859 62.236 233.254 62.236C230.882 62.236 228.789 61.829 226.975 61.015C225.161 60.2009 223.602 59.0962 222.3 57.7007C221.556 56.9099 221.021 55.9098 220.695 54.7004C220.369 53.491 220.044 52.3979 219.718 51.421L218.532 51.7699C218.858 52.7933 219.218 53.8864 219.614 55.0493C220.009 56.2122 220.207 57.3286 220.207 58.3984V78.5631L214.136 78.6329ZM232.903 30.9773C230.903 30.9773 229.147 31.2913 227.635 31.9192C226.123 32.5472 224.856 33.4194 223.833 34.5357C222.809 35.6521 222.042 36.9778 221.53 38.5129C221.018 40.0479 220.762 41.6992 220.762 43.4668C220.762 45.2344 221.018 46.8974 221.53 48.4557C222.042 50.0139 222.809 51.3862 223.833 52.5723C224.856 53.7585 226.123 54.7004 227.635 55.3982C229.147 56.0959 230.903 56.4448 232.903 56.4448C234.903 56.4448 236.566 56.0959 238.031 55.3982C239.497 54.7004 240.706 53.7585 241.66 52.5723C242.613 51.3862 243.323 50.0139 243.788 48.4557C244.253 46.8974 244.486 45.2344 244.486 43.4668C244.486 41.6992 244.253 40.0479 243.788 38.5129C243.323 36.9778 242.613 35.6521 241.66 34.5357C240.706 33.4194 239.497 32.5472 238.031 31.9192C236.566 31.2913 234.857 30.9773 232.903 30.9773Z" fill="white"/>
<path d="M274 31.9541V26.3722H264.929V14.6501H258.861V21.6996C258.871 22.7393 259.068 23.8324 259.452 24.9813C259.848 26.1675 260.208 27.249 260.534 28.2258L259.417 28.6445C259.213 28.0816 259.015 27.4909 258.824 26.8699C258.733 26.5745 258.464 26.3722 258.157 26.3722H251.884V31.9541H258.861V51.5606C258.861 52.3188 258.924 53.0537 259.052 53.7631C259.138 54.2748 259.261 54.7725 259.417 55.2586C259.789 56.4215 260.324 57.4448 261.022 58.3286C261.72 59.2124 262.58 59.8986 263.604 60.387C264.627 60.8754 265.813 61.1196 267.162 61.1196H273.651V55.3284H269.604C267.932 55.3284 266.732 55.0725 266.013 54.5609C265.29 54.0492 264.929 53.0491 264.929 51.5606V31.9541H274Z" fill="white"/>
<path d="M14.227 0.0162814C6.49841 0.369803 0.258296 6.70062 0.00943563 14.4339C-0.130112 18.7506 1.56307 22.6742 4.37496 25.4861C7.07754 28.1864 10.8081 29.8586 14.9318 29.8586H19.6066C21.2765 29.8586 22.6301 28.505 22.6301 26.8351H23.814C23.814 28.505 25.1676 29.8586 26.8375 29.8586H29.8611V14.9293C29.8611 6.45176 22.793 -0.376779 14.2294 0.0162814H14.227ZM23.8117 23.8115H15.0876C10.1383 23.8115 6.02163 19.8344 6.04721 14.8851C6.07047 10.0265 10.0174 6.07498 14.8759 6.04707C19.8276 6.01684 23.8117 10.1358 23.8117 15.0898V23.8115Z" fill="white"/>
<path d="M23.8116 31.0402V46.423H22.6277C22.6277 44.7507 21.2741 43.3971 19.6042 43.3971H15.1503C6.88443 43.3971 0.0209924 50.021 6.02597e-05 58.2846C-0.0115687 62.4245 1.66068 66.1713 4.37256 68.8832C7.08444 71.5951 10.8313 73.2674 14.9712 73.2557C23.2371 73.2325 29.8587 66.3714 29.8587 58.1055V34.0637C29.8587 32.3938 28.505 31.0402 26.8351 31.0402H23.8116ZM23.8116 58.3264C23.8116 63.4362 19.474 67.5505 14.2921 67.1854C9.91727 66.8784 6.37508 63.3362 6.06807 58.9614C5.70525 53.7795 9.81958 49.4419 14.927 49.4419H23.8093V58.3241L23.8116 58.3264Z" fill="white"/>
<path d="M58.3334 49.4465C63.2315 49.4465 67.2156 53.4306 67.2156 58.3287C67.2156 63.2268 63.2315 67.2109 58.3334 67.2109C53.4353 67.2109 49.4512 63.2268 49.4512 58.3287C49.4512 53.4306 53.4353 49.4465 58.3334 49.4465ZM58.3334 43.3994C50.0884 43.3994 43.4041 50.0838 43.4041 58.3287C43.4041 66.5737 50.0884 73.258 58.3334 73.258C66.5784 73.258 73.2627 66.5737 73.2627 58.3287C73.2627 50.0838 66.5784 43.3994 58.3334 43.3994Z" fill="white"/>
<path d="M68.8902 4.37256C66.1783 1.663 62.4338 -0.0115688 58.2939 6.01768e-05C50.028 0.0209924 43.4041 6.88675 43.4041 15.1526V19.6065C43.4041 21.2765 44.7577 22.6301 46.4276 22.6301V23.8116H34.0637C32.3938 23.8116 31.0402 25.1652 31.0402 26.8351V29.8587H43.4041V42.2156H46.4276C48.0976 42.2156 49.4512 40.862 49.4512 39.1921V29.8587H58.1124C66.3714 29.8587 73.2325 23.2464 73.2627 14.9875C73.279 10.8429 71.6044 7.08909 68.8902 4.37256ZM58.1659 23.8116H49.4512V14.9294C49.4512 10.0336 53.4353 6.04714 58.3334 6.04714C63.2315 6.04714 67.3342 10.1522 67.2133 15.148C67.0924 20.1438 63.0152 23.8116 58.1659 23.8116Z" fill="white"/>
<path d="M49.4512 43.3971V43.4227C49.4512 44.3181 49.0279 45.1531 48.3278 45.7089C46.9998 46.7649 45.8392 48.0254 44.8996 49.4442H34.0637C32.3938 49.4442 31.0402 48.0906 31.0402 46.4206V43.3971H49.4512Z" fill="white"/>
</svg>
