<svg width="274" height="79" viewBox="0 0 274 79" fill="none" xmlns="http://www.w3.org/2000/svg">
<path d="M103.963 12.2083H112.266L131.315 61.05H124.198L117.29 44.0252H99.2186L92.9389 61.05H85.6824L103.963 12.2083ZM116.034 38.5828L108.987 21.4184C108.754 20.7672 108.65 20.0462 108.673 19.2554C108.696 18.4646 108.708 17.7437 108.708 17.0924H107.522C107.522 17.7437 107.533 18.4646 107.557 19.2554C107.58 20.0462 107.475 20.7672 107.243 21.4184L100.335 38.5828H116.034Z" fill="black"/>
<path d="M148.758 62.2362C146.153 62.2362 143.781 61.771 141.641 60.8407C139.501 59.9104 137.676 58.6196 136.164 56.9683C134.652 55.3169 133.489 53.3749 132.675 51.1421C131.861 48.9094 131.454 46.4905 131.454 43.8856C131.454 41.2807 131.873 38.9084 132.71 36.6291C133.547 34.3499 134.722 32.3613 136.234 30.6635C137.745 28.9657 139.56 27.6283 141.676 26.6515C143.793 25.6746 146.13 25.1862 148.688 25.1862C151.061 25.1862 153.154 25.5932 154.968 26.4073C156.782 27.2213 158.34 28.3028 159.643 29.6518C160.387 30.4425 160.922 31.4426 161.248 32.652C161.573 33.8615 161.922 34.9778 162.294 36.0012L163.411 35.5825C163.085 34.6057 162.724 33.5242 162.329 32.338C161.934 31.1519 161.736 30.0239 161.736 28.954V10.5337H167.806V61.1198H161.736V58.6079C161.736 57.5381 161.934 56.4217 162.329 55.2588C162.724 54.0959 163.085 53.026 163.411 52.0492L162.294 51.6305C161.922 52.6539 161.573 53.7703 161.248 54.9797C160.922 56.1891 160.387 57.1659 159.643 57.9102C158.34 59.2592 156.794 60.3174 155.003 61.0849C153.212 61.8524 151.13 62.2362 148.758 62.2362ZM149.107 30.9775C147.153 30.9775 145.444 31.3147 143.979 31.9892C142.513 32.6637 141.304 33.594 140.35 34.7801C139.397 35.9663 138.687 37.3502 138.222 38.9317C137.757 40.5132 137.524 42.1878 137.524 43.9554C137.524 45.723 137.757 47.3627 138.222 48.8745C138.687 50.3863 139.397 51.7003 140.35 52.8167C141.304 53.9331 142.513 54.8169 143.979 55.4681C145.444 56.1193 147.153 56.445 149.107 56.445C151.061 56.445 152.793 56.1193 154.305 55.4681C155.817 54.8169 157.084 53.9331 158.108 52.8167C159.131 51.7003 159.91 50.3863 160.445 48.8745C160.98 47.3627 161.248 45.723 161.248 43.9554C161.248 42.1878 160.98 40.5132 160.445 38.9317C159.91 37.3502 159.131 35.9663 158.108 34.7801C157.084 33.594 155.817 32.6637 154.305 31.9892C152.793 31.3147 151.061 30.9775 149.107 30.9775Z" fill="black"/>
<path d="M191.25 62.236C188.506 62.236 185.994 61.7592 183.715 60.8056C181.436 59.8521 179.47 58.538 177.819 56.8634C176.168 55.1888 174.888 53.2119 173.981 50.9326C173.074 48.6533 172.621 46.188 172.621 43.5366C172.621 40.8852 173.074 38.4315 173.981 36.1754C174.888 33.9194 176.168 31.9774 177.819 30.3493C179.47 28.7213 181.436 27.4537 183.715 26.5466C185.994 25.6396 188.506 25.186 191.25 25.186C193.995 25.186 196.518 25.6512 198.821 26.5815C201.123 27.5118 203.089 28.791 204.717 30.4191C206.345 32.0471 207.612 33.9776 208.519 36.2103C209.427 38.4431 209.88 40.8852 209.88 43.5366C209.88 46.188 209.427 48.6533 208.519 50.9326C207.612 53.2119 206.345 55.1888 204.717 56.8634C203.089 58.538 201.123 59.8521 198.821 60.8056C196.518 61.7592 193.995 62.236 191.25 62.236ZM178.9 43.5366C178.9 45.2577 179.156 46.909 179.668 48.4905C180.18 50.0721 180.947 51.4443 181.97 52.6072C182.994 53.7701 184.273 54.7004 185.808 55.3982C187.343 56.0959 189.157 56.4448 191.25 56.4448C193.344 56.4448 195.158 56.0959 196.693 55.3982C198.228 54.7004 199.507 53.7701 200.53 52.6072C201.554 51.4443 202.321 50.0721 202.833 48.4905C203.345 46.909 203.6 45.2577 203.6 43.5366C203.6 41.8155 203.345 40.1177 202.833 38.5826C202.321 37.0476 201.554 35.7219 200.53 34.6055C199.507 33.4891 198.228 32.6053 196.693 31.9541C195.158 31.3029 193.344 30.9773 191.25 30.9773C189.157 30.9773 187.343 31.3029 185.808 31.9541C184.273 32.6053 182.994 33.4891 181.97 34.6055C180.947 35.7219 180.18 37.0476 179.668 38.5826C179.156 40.1177 178.9 41.769 178.9 43.5366Z" fill="black"/>
<path d="M214.136 78.6329V26.3024L220.207 26.2326V28.7445C220.207 29.8144 220.009 30.9308 219.614 32.0937C219.218 33.2566 218.858 34.3497 218.532 35.373L219.648 35.7219C220.021 34.7451 220.369 33.6519 220.695 32.4425C221.021 31.2331 221.556 30.233 222.3 29.4423C223.649 28.0933 225.219 27.0467 227.01 26.3024C228.8 25.5582 230.882 25.186 233.254 25.186C235.906 25.186 238.301 25.6512 240.441 26.5815C242.581 27.5118 244.407 28.8027 245.918 30.454C247.43 32.1053 248.593 34.0473 249.407 36.2801C250.221 38.5129 250.628 40.9317 250.628 43.5366C250.628 46.1415 250.209 48.5138 249.372 50.7931C248.535 53.0724 247.349 55.0609 245.814 56.7587C244.279 58.4566 242.453 59.7939 240.336 60.7707C238.22 61.7476 235.859 62.236 233.254 62.236C230.882 62.236 228.789 61.829 226.975 61.015C225.161 60.2009 223.602 59.0962 222.3 57.7007C221.556 56.9099 221.021 55.9098 220.695 54.7004C220.369 53.491 220.044 52.3979 219.718 51.421L218.532 51.7699C218.858 52.7933 219.218 53.8864 219.614 55.0493C220.009 56.2122 220.207 57.3286 220.207 58.3984V78.5631L214.136 78.6329ZM232.903 30.9773C230.903 30.9773 229.147 31.2913 227.635 31.9192C226.123 32.5472 224.856 33.4194 223.833 34.5357C222.809 35.6521 222.042 36.9778 221.53 38.5129C221.018 40.0479 220.762 41.6992 220.762 43.4668C220.762 45.2344 221.018 46.8974 221.53 48.4557C222.042 50.0139 222.809 51.3862 223.833 52.5723C224.856 53.7585 226.123 54.7004 227.635 55.3982C229.147 56.0959 230.903 56.4448 232.903 56.4448C234.903 56.4448 236.566 56.0959 238.031 55.3982C239.497 54.7004 240.706 53.7585 241.66 52.5723C242.613 51.3862 243.323 50.0139 243.788 48.4557C244.253 46.8974 244.486 45.2344 244.486 43.4668C244.486 41.6992 244.253 40.0479 243.788 38.5129C243.323 36.9778 242.613 35.6521 241.66 34.5357C240.706 33.4194 239.497 32.5472 238.031 31.9192C236.566 31.2913 234.857 30.9773 232.903 30.9773Z" fill="black"/>
<path d="M274 31.9543V26.3724H264.929V14.6504H258.861V21.6999C258.871 22.7395 259.068 23.8326 259.452 24.9816C259.848 26.1677 260.208 27.2492 260.534 28.2261L259.417 28.6447C259.213 28.0819 259.015 27.4911 258.824 26.8701C258.733 26.5748 258.464 26.3724 258.157 26.3724H251.884V31.9543H258.861V51.5608C258.861 52.319 258.924 53.054 259.052 53.7633C259.138 54.275 259.261 54.7727 259.417 55.2588C259.789 56.4217 260.324 57.4451 261.022 58.3289C261.72 59.2127 262.58 59.8988 263.604 60.3872C264.627 60.8756 265.813 61.1198 267.162 61.1198H273.651V55.3286H269.604C267.932 55.3286 266.732 55.0728 266.013 54.5611C265.29 54.0494 264.929 53.0493 264.929 51.5608V31.9543H274Z" fill="black"/>
<path d="M14.227 0.0161593C6.49841 0.369681 0.258296 6.7005 0.00943563 14.4338C-0.130112 18.7505 1.56307 22.6741 4.37496 25.486C7.07754 28.1862 10.8081 29.8585 14.9318 29.8585H19.6066C21.2765 29.8585 22.6301 28.5049 22.6301 26.8349H23.814C23.814 28.5049 25.1676 29.8585 26.8375 29.8585H29.8611V14.9292C29.8611 6.45164 22.793 -0.376901 14.2294 0.0161593H14.227ZM23.8117 23.8114H15.0876C10.1383 23.8114 6.02163 19.8343 6.04721 14.885C6.07047 10.0264 10.0174 6.07486 14.8759 6.04695C19.8276 6.01672 23.8117 10.1357 23.8117 15.0897V23.8114Z" fill="#0364FF"/>
<path d="M23.8116 31.04V46.4229H22.6277C22.6277 44.7506 21.2741 43.397 19.6042 43.397H15.1503C6.88443 43.397 0.0209924 50.0209 6.02597e-05 58.2844C-0.0115687 62.4243 1.66068 66.1712 4.37256 68.8831C7.08444 71.595 10.8313 73.2672 14.9712 73.2556C23.2371 73.2323 29.8587 66.3712 29.8587 58.1054V34.0636C29.8587 32.3937 28.505 31.04 26.8351 31.04H23.8116ZM23.8116 58.3263C23.8116 63.4361 19.474 67.5504 14.2921 67.1853C9.91727 66.8783 6.37508 63.3361 6.06807 58.9612C5.70525 53.7794 9.81958 49.4418 14.927 49.4418H23.8093V58.324L23.8116 58.3263Z" fill="#FFB1F2"/>
<path d="M58.3334 49.4465C63.2315 49.4465 67.2156 53.4306 67.2156 58.3287C67.2156 63.2268 63.2315 67.2109 58.3334 67.2109C53.4353 67.2109 49.4512 63.2268 49.4512 58.3287C49.4512 53.4306 53.4353 49.4465 58.3334 49.4465ZM58.3334 43.3994C50.0884 43.3994 43.4041 50.0838 43.4041 58.3287C43.4041 66.5737 50.0884 73.258 58.3334 73.258C66.5784 73.258 73.2627 66.5737 73.2627 58.3287C73.2627 50.0838 66.5784 43.3994 58.3334 43.3994Z" fill="#FF5000"/>
<path d="M68.8902 4.37256C66.1783 1.663 62.4338 -0.0115688 58.2939 6.01768e-05C50.028 0.0209924 43.4041 6.88675 43.4041 15.1526V19.6065C43.4041 21.2765 44.7577 22.6301 46.4276 22.6301V23.8116H34.0637C32.3938 23.8116 31.0402 25.1652 31.0402 26.8351V29.8587H43.4041V42.2156H46.4276C48.0976 42.2156 49.4512 40.862 49.4512 39.1921V29.8587H58.1124C66.3714 29.8587 73.2325 23.2464 73.2627 14.9875C73.279 10.8429 71.6044 7.08909 68.8902 4.37256ZM58.1659 23.8116H49.4512V14.9294C49.4512 10.0336 53.4353 6.04714 58.3334 6.04714C63.2315 6.04714 67.3342 10.1522 67.2133 15.148C67.0924 20.1438 63.0152 23.8116 58.1659 23.8116Z" fill="#F6CC1C"/>
<path d="M49.4512 43.397V43.4226C49.4512 44.318 49.0279 45.153 48.3278 45.7088C46.9998 46.7647 45.8392 48.0253 44.8996 49.444H34.0637C32.3938 49.444 31.0402 48.0904 31.0402 46.4205V43.397H49.4512Z" fill="#FFB1F2"/>
</svg>
